<?xml version="1.0" encoding="UTF-8"?>
<svg id="Capa_2" data-name="Capa 2" xmlns="http://www.w3.org/2000/svg" viewBox="0 0 995.26 673">
  <defs>
    <style>
      .cls-1 {
        fill: #52abed;
      }

      .cls-2 {
        fill: #fc9a37;
      }
    </style>
  </defs>
  <g id="Capa_1-2" data-name="Capa 1">
    <g>
      <path class="cls-2" d="M344.52,484.4h80.41v-155.34l65.99,84.98,159.02-199.41h-74.03c-15.39,0-29.91,7.15-39.29,19.36l-46.55,60.57-42.71-64.8c-6.23-9.45-16.79-15.13-28.1-15.13h-74.74v269.77Z"/>
      <path class="cls-2" d="M557.08,484.4v-104.12l136.3-165.65h92.13l-107.28,134.88,107.28,134.88h-68.23c-23.09,0-37.1-10.57-53.77-35.55l-28.19-37.02v72.57h-78.25Z"/>
      <path class="cls-2" d="M830.21,214.63l-59.32,73.36h76.36v196.41h74.46v-198.3h43.86c16.21,0,29.34-13.14,29.34-29.34v-42.12h-164.7Z"/>
      <path class="cls-2" d="M178.56,214.63l13.11,224.21c1.5,25.58,22.67,45.55,48.3,45.55h29.67l9.04-213.53c0-31.06-25.18-56.24-56.24-56.24h-43.88Z"/>
      <path class="cls-2" d="M306.07,213.79c21.75-13.49,61.16-42.41,63.81-76.16.97-12.36-8.04-23.29-20.3-25.13h0c-13.72-2.06-26.3,7.96-27.35,21.79-1.66,21.77-6.55,52.88-20.52,75.16-1.77,2.82,1.53,6.08,4.36,4.33Z"/>
      <ellipse class="cls-2" cx="228.62" cy="151.48" rx="47.49" ry="45.64"/>
      <path class="cls-1" d="M0,603.22l65.74-143.49c11.25-24.54,16.95-50.68,16.95-77.68V100.45c.17-24.67,15.02-47.19,37.82-57.4l30.43-13.61c9.98-4.47,20.23-7.95,30.47-10.37C215.92,10.92,271.64,1.01,341.1.07c71.13-.97,141.92,8.65,210.36,28.57l.41.13c13.58,4.27,33.51,13.24,51.36,31.73.89.92,1.75,1.84,2.59,2.77,17.44,19.22,27.04,44.57,27.04,71.36v54.72h-40.32v-54.72c0-16.76-5.89-32.48-16.59-44.27-.56-.62-1.14-1.23-1.73-1.85-11.88-12.31-25.16-18.33-34.26-21.22-64.54-18.76-131.24-27.81-198.33-26.9-65.81.89-118.43,10.24-150.99,17.92-7.77,1.83-15.6,4.5-23.26,7.93l-30.43,13.61c-8.43,3.77-13.91,11.95-13.97,20.84v.3s0,281.05,0,281.05c0,32.83-6.93,64.62-20.61,94.47l-34.9,76.17,87.36-12.67c14.1-2.04,28.46-2.91,42.69-2.58l380.74,8.83c3.82.11,7.37-1.32,10.08-3.97,2.71-2.65,4.2-6.19,4.2-9.98v-32.5h40.32v32.5c0,14.74-5.8,28.52-16.34,38.82-10.54,10.3-24.45,15.74-39.19,15.44l-380.74-8.83c-11.99-.29-24.09.45-35.97,2.17L0,603.22Z"/>
      <g>
        <path class="cls-2" d="M675.75,573.02h-22.51l-3.61,10.65h-15.38l21.82-60.31h17.01l21.82,60.31h-15.55l-3.61-10.65ZM671.97,561.68l-7.47-22.08-7.39,22.08h14.86Z"/>
        <path class="cls-2" d="M741.56,542.43c-1.09-2-2.65-3.54-4.68-4.6-2.03-1.06-4.42-1.59-7.17-1.59-4.75,0-8.56,1.56-11.43,4.68-2.87,3.12-4.3,7.29-4.3,12.5,0,5.56,1.5,9.89,4.51,13.02,3.01,3.12,7.14,4.68,12.41,4.68,3.61,0,6.66-.92,9.15-2.75,2.49-1.83,4.31-4.47,5.46-7.9h-18.64v-10.83h31.96v13.66c-1.09,3.67-2.94,7.07-5.54,10.22-2.61,3.15-5.92,5.7-9.92,7.65-4.01,1.95-8.54,2.92-13.57,2.92-5.96,0-11.27-1.3-15.94-3.91-4.67-2.61-8.31-6.23-10.91-10.87-2.61-4.64-3.91-9.94-3.91-15.89s1.3-11.27,3.91-15.94c2.61-4.67,6.23-8.3,10.87-10.91,4.64-2.61,9.94-3.91,15.89-3.91,7.22,0,13.3,1.75,18.26,5.24,4.95,3.49,8.23,8.33,9.84,14.52h-16.24Z"/>
        <path class="cls-2" d="M781.68,535.13v12.2h19.67v11.34h-19.67v13.23h22.25v11.77h-36.94v-60.31h36.94v11.77h-22.25Z"/>
        <path class="cls-2" d="M867.42,583.67h-14.69l-24.57-37.2v37.2h-14.69v-60.31h14.69l24.57,37.37v-37.37h14.69v60.31Z"/>
        <path class="cls-2" d="M879.45,537.49c2.58-4.67,6.17-8.3,10.78-10.91,4.61-2.61,9.84-3.91,15.68-3.91,7.16,0,13.29,1.89,18.38,5.67s8.51,8.93,10.22,15.46h-16.15c-1.2-2.52-2.91-4.44-5.11-5.76-2.21-1.32-4.71-1.98-7.52-1.98-4.53,0-8.19,1.58-11,4.73-2.81,3.15-4.21,7.36-4.21,12.63s1.4,9.48,4.21,12.63c2.81,3.15,6.47,4.73,11,4.73,2.81,0,5.31-.66,7.52-1.98,2.2-1.32,3.91-3.24,5.11-5.76h16.15c-1.72,6.53-5.13,11.67-10.22,15.42-5.1,3.75-11.23,5.63-18.38,5.63-5.84,0-11.07-1.3-15.68-3.91-4.61-2.61-8.21-6.23-10.78-10.87s-3.87-9.94-3.87-15.89,1.29-11.27,3.87-15.94Z"/>
        <path class="cls-2" d="M995.26,523.36l-20.88,40.38v19.93h-14.69v-19.93l-20.88-40.38h16.67l11.68,25.26,11.6-25.26h16.5Z"/>
      </g>
      <g>
        <path class="cls-1" d="M292.97,606.36v66.17h-16.12v-66.17h16.12Z"/>
        <path class="cls-1" d="M308.33,606.36h16.5l-10.56,25.26h-10.84l4.9-25.26Z"/>
        <path class="cls-1" d="M409.19,606.36v66.17h-16.12v-39.68l-14.8,39.68h-13.01l-14.89-39.78v39.78h-16.12v-66.17h19.04l18.57,45.81,18.38-45.81h18.95Z"/>
        <path class="cls-1" d="M515.7,606.36v66.17h-16.12v-39.68l-14.8,39.68h-13.01l-14.89-39.78v39.78h-16.12v-66.17h19.04l18.57,45.81,18.38-45.81h18.95Z"/>
        <path class="cls-1" d="M568.48,660.84h-24.7l-3.96,11.69h-16.87l23.94-66.17h18.66l23.94,66.17h-17.06l-3.96-11.69ZM564.33,648.4l-8.2-24.22-8.11,24.22h16.3Z"/>
        <path class="cls-1" d="M630.5,672.53l-13.76-24.98h-3.86v24.98h-16.12v-66.17h27.05c5.21,0,9.66.91,13.34,2.73,3.68,1.82,6.42,4.32,8.25,7.49,1.82,3.17,2.73,6.71,2.73,10.6,0,4.4-1.24,8.33-3.72,11.78-2.48,3.46-6.14,5.91-10.98,7.35l15.27,26.2h-18.19ZM612.87,636.15h9.99c2.95,0,5.17-.72,6.65-2.17,1.48-1.44,2.21-3.49,2.21-6.13s-.74-4.49-2.21-5.94c-1.48-1.44-3.69-2.17-6.65-2.17h-9.99v16.4Z"/>
        <path class="cls-1" d="M696.57,672.53l-22.24-29.22v29.22h-16.12v-66.17h16.12v29.03l22.06-29.03h18.95l-25.64,32.42,26.58,33.74h-19.7Z"/>
        <path class="cls-1" d="M740.02,619.28v13.38h21.58v12.44h-21.58v14.52h24.41v12.91h-40.53v-66.17h40.53v12.91h-24.41Z"/>
        <path class="cls-1" d="M822.49,606.36v12.91h-17.53v53.25h-16.12v-53.25h-17.53v-12.91h51.18Z"/>
        <path class="cls-1" d="M846.72,606.36v66.17h-16.12v-66.17h16.12Z"/>
        <path class="cls-1" d="M917.6,672.53h-16.12l-26.96-40.81v40.81h-16.12v-66.17h16.12l26.96,41v-41h16.12v66.17Z"/>
        <path class="cls-1" d="M973.21,627.29c-1.19-2.2-2.91-3.88-5.14-5.04-2.23-1.16-4.85-1.74-7.87-1.74-5.22,0-9.39,1.71-12.54,5.14-3.14,3.42-4.71,8-4.71,13.71,0,6.1,1.65,10.86,4.95,14.28,3.3,3.43,7.84,5.14,13.62,5.14,3.96,0,7.3-1,10.04-3.02,2.73-2.01,4.73-4.9,5.99-8.67h-20.45v-11.88h35.06v14.99c-1.19,4.02-3.22,7.76-6.08,11.22-2.86,3.46-6.49,6.25-10.89,8.39-4.4,2.14-9.36,3.21-14.89,3.21-6.54,0-12.36-1.43-17.48-4.29-5.12-2.86-9.11-6.83-11.97-11.92-2.86-5.09-4.29-10.9-4.29-17.44s1.43-12.36,4.29-17.48c2.86-5.12,6.83-9.11,11.92-11.97,5.09-2.86,10.9-4.29,17.44-4.29,7.92,0,14.59,1.92,20.03,5.75,5.43,3.83,9.03,9.14,10.79,15.93h-17.81Z"/>
      </g>
    </g>
  </g>
</svg>